<svg width="17" height="17" viewBox="0 0 17 17" fill="none" xmlns="http://www.w3.org/2000/svg">
<path d="M15.8378 13.4109C15.8784 13.5226 15.8863 13.6437 15.8606 13.7598C15.8349 13.8759 15.7765 13.9822 15.6925 14.0663L13.8175 15.9413C13.7594 15.9995 13.6905 16.0456 13.6147 16.0771C13.5388 16.1086 13.4574 16.1249 13.3753 16.1249C13.3547 16.1261 13.3341 16.1261 13.3136 16.1249C13.2215 16.1159 13.1327 16.0865 13.0534 16.0389C12.9741 15.9914 12.9063 15.9268 12.855 15.8499L9.412 10.6843L7.75028 12.3429V14.2499C7.7502 14.4155 7.68446 14.5742 7.56747 14.6913C7.56747 14.6913 6.47372 15.7898 6.32684 15.9319C6.26579 15.9959 6.19172 16.046 6.10966 16.0788C5.9567 16.1411 5.7853 16.1404 5.63291 16.0767C5.48052 16.013 5.35953 15.8916 5.29637 15.739L5.29169 15.7273L4.14325 12.8554L1.26591 11.7046C1.16992 11.6662 1.08496 11.6046 1.01863 11.5253C0.952304 11.446 0.906685 11.3515 0.885859 11.2502C0.865034 11.149 0.869653 11.0441 0.899302 10.9451C0.928952 10.846 0.982706 10.7559 1.05575 10.6827L2.30575 9.43273C2.36411 9.37443 2.43344 9.32826 2.50974 9.29688C2.58603 9.2655 2.66779 9.24954 2.75028 9.24992H4.65653L6.31825 7.5882L1.15341 4.14445C1.07637 4.09317 1.01169 4.02542 0.964024 3.9461C0.916359 3.86678 0.886903 3.77786 0.877784 3.68577C0.868665 3.59368 0.880109 3.50072 0.911291 3.41359C0.942473 3.32646 0.992614 3.24734 1.05809 3.18195L2.93309 1.30695C3.0172 1.22288 3.12355 1.16455 3.23966 1.13881C3.35576 1.11307 3.4768 1.12099 3.58856 1.16164L10.3026 3.60304L12.7659 1.13976C13.1762 0.729503 13.7326 0.499023 14.3128 0.499023C14.6001 0.499023 14.8845 0.555608 15.1499 0.665545C15.4154 0.775483 15.6565 0.936621 15.8597 1.13976C16.0628 1.3429 16.2239 1.58406 16.3339 1.84947C16.4438 2.11489 16.5004 2.39935 16.5004 2.68664C16.5004 2.97392 16.4438 3.25838 16.3339 3.5238C16.2239 3.78921 16.0628 4.03037 15.8597 4.23351L13.3964 6.69679L15.8378 13.4109Z" fill="#666666"/>
</svg>
