<svg width="20" height="20" viewBox="0 0 20 20" fill="none" xmlns="http://www.w3.org/2000/svg">
<path d="M16.8378 15.4109C16.8784 15.5226 16.8863 15.6437 16.8606 15.7598C16.8349 15.8759 16.7765 15.9822 16.6925 16.0663L14.8175 17.9413C14.7594 17.9995 14.6905 18.0456 14.6147 18.0771C14.5388 18.1086 14.4574 18.1249 14.3753 18.1249C14.3547 18.1261 14.3341 18.1261 14.3136 18.1249C14.2215 18.1159 14.1327 18.0865 14.0534 18.0389C13.9741 17.9914 13.9063 17.9268 13.855 17.8499L10.412 12.6843L8.75028 14.3429V16.2499C8.7502 16.4155 8.68446 16.5742 8.56747 16.6913C8.56747 16.6913 7.47372 17.7898 7.32684 17.9319C7.26579 17.9959 7.19172 18.046 7.10966 18.0788C6.9567 18.1411 6.7853 18.1404 6.63291 18.0767C6.48052 18.013 6.35953 17.8916 6.29637 17.739L6.29169 17.7273L5.14325 14.8554L2.26591 13.7046C2.16992 13.6662 2.08496 13.6046 2.01863 13.5253C1.9523 13.446 1.90668 13.3515 1.88586 13.2502C1.86503 13.149 1.86965 13.0441 1.8993 12.9451C1.92895 12.846 1.98271 12.7559 2.05575 12.6827L3.30575 11.4327C3.36411 11.3744 3.43344 11.3283 3.50974 11.2969C3.58603 11.2655 3.66779 11.2495 3.75028 11.2499H5.65653L7.31825 9.5882L2.15341 6.14445C2.07637 6.09317 2.01169 6.02542 1.96402 5.9461C1.91636 5.86678 1.8869 5.77786 1.87778 5.68577C1.86866 5.59368 1.88011 5.50072 1.91129 5.41359C1.94247 5.32646 1.99261 5.24734 2.05809 5.18195L3.93309 3.30695C4.0172 3.22288 4.12355 3.16455 4.23966 3.13881C4.35576 3.11307 4.4768 3.12099 4.58856 3.16164L11.3026 5.60304L13.7659 3.13976C14.1762 2.7295 14.7326 2.49902 15.3128 2.49902C15.6001 2.49902 15.8845 2.55561 16.1499 2.66555C16.4154 2.77548 16.6565 2.93662 16.8597 3.13976C17.0628 3.3429 17.2239 3.58406 17.3339 3.84947C17.4438 4.11489 17.5004 4.39935 17.5004 4.68664C17.5004 4.97392 17.4438 5.25838 17.3339 5.5238C17.2239 5.78921 17.0628 6.03037 16.8597 6.23351L14.3964 8.69679L16.8378 15.4109Z" fill="#283093"/>
</svg>
