<svg width="18" height="18" viewBox="0 0 18 18" fill="none" xmlns="http://www.w3.org/2000/svg">
<path d="M16.0312 7.3125C16.0312 7.53628 15.9424 7.75089 15.7841 7.90912C15.6259 8.06736 15.4113 8.15625 15.1875 8.15625C14.9637 8.15625 14.7491 8.06736 14.5909 7.90912C14.4326 7.75089 14.3438 7.53628 14.3438 7.3125V4.85156L10.1595 9.03586C10.0009 9.19437 9.78596 9.28342 9.5618 9.28342C9.33763 9.28342 9.12265 9.19437 8.96414 9.03586C8.80563 8.87735 8.71658 8.66237 8.71658 8.4382C8.71658 8.21404 8.80563 7.99906 8.96414 7.84055L13.1484 3.65625H10.6875C10.4637 3.65625 10.2491 3.56736 10.0909 3.40912C9.93265 3.25089 9.84375 3.03628 9.84375 2.8125C9.84375 2.58872 9.93265 2.37411 10.0909 2.21588C10.2491 2.05764 10.4637 1.96875 10.6875 1.96875H15.1875C15.4113 1.96875 15.6259 2.05764 15.7841 2.21588C15.9424 2.37411 16.0312 2.58872 16.0312 2.8125V7.3125ZM12.9375 9C12.7137 9 12.4991 9.0889 12.3409 9.24713C12.1826 9.40536 12.0938 9.61997 12.0938 9.84375V14.3438H3.65625V5.90625H8.15625C8.38003 5.90625 8.59464 5.81736 8.75287 5.65912C8.91111 5.50089 9 5.28628 9 5.0625C9 4.83872 8.91111 4.62411 8.75287 4.46588C8.59464 4.30764 8.38003 4.21875 8.15625 4.21875H3.375C3.00204 4.21875 2.64435 4.36691 2.38063 4.63063C2.11691 4.89435 1.96875 5.25204 1.96875 5.625V14.625C1.96875 14.998 2.11691 15.3556 2.38063 15.6194C2.64435 15.8831 3.00204 16.0312 3.375 16.0312H12.375C12.748 16.0312 13.1056 15.8831 13.3694 15.6194C13.6331 15.3556 13.7812 14.998 13.7812 14.625V9.84375C13.7812 9.61997 13.6924 9.40536 13.5341 9.24713C13.3759 9.0889 13.1613 9 12.9375 9Z" fill="#2E2E2E"/>
</svg>
