<svg width="16" height="16" viewBox="0 0 16 16" fill="none" xmlns="http://www.w3.org/2000/svg">
<path d="M13.6429 11.3856C13.5922 11.4702 13.5254 11.5439 13.4462 11.6026C13.3671 11.6613 13.2771 11.7038 13.1815 11.7277C13.0859 11.7516 12.9866 11.7564 12.8891 11.7419C12.7916 11.7274 12.698 11.6938 12.6135 11.6431L8.74973 9.32438V13.5C8.74973 13.6989 8.67071 13.8897 8.53006 14.0303C8.38941 14.171 8.19864 14.25 7.99973 14.25C7.80082 14.25 7.61005 14.171 7.4694 14.0303C7.32875 13.8897 7.24973 13.6989 7.24973 13.5V9.32438L3.38598 11.6431C3.30152 11.6938 3.20791 11.7274 3.11049 11.7419C3.01306 11.7564 2.91374 11.7515 2.81818 11.7277C2.72262 11.7038 2.63271 11.6613 2.55356 11.6027C2.47442 11.544 2.4076 11.4704 2.35692 11.3859C2.25456 11.2154 2.22415 11.0111 2.27238 10.8181C2.32062 10.6252 2.44354 10.4592 2.6141 10.3569L6.54223 8L2.6141 5.64313C2.44354 5.54077 2.32062 5.37485 2.27238 5.18186C2.22415 4.98887 2.25456 4.78463 2.35692 4.61406C2.45927 4.4435 2.62519 4.32058 2.81818 4.27234C3.01117 4.22411 3.21541 4.25452 3.38598 4.35687L7.24973 6.67562V2.5C7.24973 2.30109 7.32875 2.11032 7.4694 1.96967C7.61005 1.82902 7.80082 1.75 7.99973 1.75C8.19864 1.75 8.38941 1.82902 8.53006 1.96967C8.67071 2.11032 8.74973 2.30109 8.74973 2.5V6.67562L12.6135 4.35687C12.6979 4.30619 12.7915 4.27264 12.889 4.25814C12.9864 4.24363 13.0857 4.24846 13.1813 4.27234C13.2768 4.29622 13.3667 4.33869 13.4459 4.39733C13.525 4.45596 13.5919 4.52961 13.6425 4.61406C13.6932 4.69852 13.7268 4.79213 13.7413 4.88955C13.7558 4.98698 13.751 5.0863 13.7271 5.18186C13.7032 5.27742 13.6607 5.36733 13.6021 5.44648C13.5435 5.52562 13.4698 5.59244 13.3854 5.64313L9.45723 8L13.3854 10.3569C13.5559 10.4592 13.6788 10.625 13.7271 10.8179C13.7754 11.0109 13.7451 11.215 13.6429 11.3856Z" fill="#FAFAFA"/>
</svg>
