<svg width="16" height="18" viewBox="0 0 16 18" fill="none" xmlns="http://www.w3.org/2000/svg">
<path d="M15.5009 4.55477C15.3538 4.63095 15.1824 4.64561 15.0245 4.5955C14.8666 4.5454 14.735 4.43465 14.6587 4.28758C14.0622 3.10906 13.1592 2.11297 12.0447 1.40399C11.9752 1.36018 11.9151 1.30312 11.8676 1.23606C11.8202 1.16901 11.7865 1.09328 11.7684 1.01319C11.7502 0.933096 11.7481 0.850217 11.7619 0.769283C11.7758 0.688348 11.8055 0.610943 11.8493 0.541486C11.8932 0.472029 11.9502 0.41188 12.0173 0.364475C12.0843 0.31707 12.1601 0.283336 12.2401 0.2652C12.3202 0.247063 12.4031 0.244879 12.4841 0.258773C12.565 0.272666 12.6424 0.302365 12.7118 0.346173C14.0108 1.17784 15.0655 2.33958 15.7681 3.71258C15.8443 3.8597 15.8589 4.03106 15.8088 4.18898C15.7587 4.3469 15.648 4.47847 15.5009 4.55477ZM0.790754 4.62508C0.905256 4.62503 1.01755 4.59353 1.11536 4.53401C1.21318 4.47449 1.29277 4.38925 1.34544 4.28758C1.94201 3.10906 2.84499 2.11297 3.9595 1.40399C4.09978 1.31551 4.19916 1.17494 4.23579 1.01319C4.27242 0.851436 4.24329 0.68176 4.15482 0.541486C4.06634 0.401211 3.92577 0.301828 3.76402 0.2652C3.60227 0.228571 3.43259 0.257698 3.29232 0.346173C1.99341 1.17784 0.938707 2.33958 0.236066 3.71258C0.186721 3.80783 0.162722 3.91418 0.166379 4.02139C0.170036 4.1286 0.201226 4.23306 0.256947 4.32473C0.312669 4.41639 0.391046 4.49217 0.484536 4.54478C0.578026 4.59738 0.683481 4.62503 0.790754 4.62508ZM15.3298 12.7454C15.4405 12.9353 15.4992 13.151 15.5 13.3708C15.5008 13.5906 15.4435 13.8067 15.3341 13.9973C15.2247 14.188 15.0669 14.3464 14.8768 14.4566C14.6866 14.5668 14.4707 14.6249 14.2509 14.6251H11.0634C10.92 15.3315 10.5367 15.9666 9.97857 16.4228C9.42044 16.879 8.72176 17.1282 8.00091 17.1282C7.28006 17.1282 6.58138 16.879 6.02325 16.4228C5.46512 15.9666 5.08186 15.3315 4.93841 14.6251H1.75091C1.53124 14.6246 1.31556 14.5663 1.1256 14.456C0.935644 14.3457 0.778113 14.1872 0.668878 13.9967C0.559643 13.8061 0.502563 13.5901 0.503386 13.3704C0.504209 13.1507 0.562907 12.9352 0.673566 12.7454C1.37747 11.5305 1.75091 9.8032 1.75091 7.75008C1.75091 6.09248 2.40939 4.50276 3.58149 3.33066C4.7536 2.15856 6.34331 1.50008 8.00091 1.50008C9.65851 1.50008 11.2482 2.15856 12.4203 3.33066C13.5924 4.50276 14.2509 6.09248 14.2509 7.75008C14.2509 9.80242 14.6243 11.5298 15.3298 12.7454ZM9.7681 14.6251H6.23372C6.36321 14.9902 6.60264 15.3063 6.91909 15.5299C7.23554 15.7534 7.61347 15.8734 8.00091 15.8734C8.38835 15.8734 8.76628 15.7534 9.08273 15.5299C9.39918 15.3063 9.63861 14.9902 9.7681 14.6251Z" fill="#666666"/>
</svg>
