<svg width="14" height="14" viewBox="0 0 14 14" fill="none" xmlns="http://www.w3.org/2000/svg">
<path d="M11.8393 5.71427L7.46427 10.0893C7.40331 10.1505 7.33086 10.199 7.25109 10.2321C7.17132 10.2652 7.0858 10.2823 6.99943 10.2823C6.91306 10.2823 6.82754 10.2652 6.74777 10.2321C6.668 10.199 6.59555 10.1505 6.53459 10.0893L2.15959 5.71427C2.0363 5.59099 1.96704 5.42378 1.96704 5.24943C1.96704 5.07508 2.0363 4.90787 2.15959 4.78458C2.28287 4.6613 2.45008 4.59204 2.62443 4.59204C2.79878 4.59204 2.96599 4.6613 3.08927 4.78458L6.99998 8.69529L10.9107 4.78404C11.034 4.66075 11.2012 4.59149 11.3755 4.59149C11.5499 4.59149 11.7171 4.66075 11.8404 4.78404C11.9637 4.90732 12.0329 5.07453 12.0329 5.24888C12.0329 5.42323 11.9637 5.59044 11.8404 5.71372L11.8393 5.71427Z" fill="#2E2E2E"/>
</svg>
