<svg width="14" height="14" viewBox="0 0 14 14" fill="none" xmlns="http://www.w3.org/2000/svg">
<path d="M11.8393 9.21432C11.7783 9.2755 11.7059 9.32404 11.6261 9.35716C11.5463 9.39029 11.4608 9.40734 11.3744 9.40734C11.2881 9.40734 11.2025 9.39029 11.1228 9.35716C11.043 9.32404 10.9706 9.2755 10.9096 9.21432L6.99998 5.30471L3.08927 9.21432C2.96599 9.3376 2.79878 9.40686 2.62443 9.40686C2.45008 9.40686 2.28287 9.3376 2.15959 9.21432C2.0363 9.09103 1.96704 8.92382 1.96704 8.74948C1.96704 8.57512 2.0363 8.40792 2.15959 8.28463L6.53459 3.90963C6.59555 3.84845 6.668 3.79991 6.74777 3.76679C6.82754 3.73366 6.91306 3.71661 6.99943 3.71661C7.0858 3.71661 7.17132 3.73366 7.25109 3.76679C7.33086 3.79991 7.40331 3.84845 7.46427 3.90963L11.8393 8.28463C11.9005 8.3456 11.949 8.41804 11.9821 8.49781C12.0152 8.57758 12.0323 8.6631 12.0323 8.74948C12.0323 8.83585 12.0152 8.92137 11.9821 9.00114C11.949 9.08091 11.9005 9.15335 11.8393 9.21432Z" fill="#2E2E2E"/>
</svg>
