<svg width="17" height="16" viewBox="0 0 17 16" fill="none" xmlns="http://www.w3.org/2000/svg">
<path d="M11.0307 12.4693C11.1715 12.6102 11.2507 12.8013 11.2507 13.0006C11.2507 13.1998 11.1715 13.3909 11.0307 13.5318C10.8898 13.6727 10.6987 13.7519 10.4994 13.7519C10.3001 13.7519 10.109 13.6727 9.96815 13.5318L4.96815 8.53182C4.89823 8.46214 4.84275 8.37935 4.8049 8.28818C4.76704 8.19702 4.74756 8.09928 4.74756 8.00057C4.74756 7.90186 4.76704 7.80412 4.8049 7.71295C4.84275 7.62179 4.89823 7.539 4.96815 7.46932L9.96815 2.46932C10.109 2.32842 10.3001 2.24927 10.4994 2.24927C10.6987 2.24927 10.8898 2.32842 11.0307 2.46932C11.1715 2.61021 11.2507 2.80131 11.2507 3.00057C11.2507 3.19983 11.1715 3.39092 11.0307 3.53182L6.56252 7.99994L11.0307 12.4693Z" fill="#B0B0B0"/>
</svg>
