<svg width="14" height="14" viewBox="0 0 14 14" fill="none" xmlns="http://www.w3.org/2000/svg">
<path d="M9.93453 7.30951L5.55953 11.6845C5.49834 11.7458 5.42036 11.7875 5.33545 11.8044C5.25053 11.8213 5.16251 11.8126 5.08253 11.7795C5.00254 11.7464 4.93419 11.6902 4.88612 11.6182C4.83805 11.5462 4.81243 11.4616 4.8125 11.375V2.62498C4.81243 2.5384 4.83805 2.45375 4.88612 2.38174C4.93419 2.30973 5.00254 2.2536 5.08253 2.22046C5.16251 2.18731 5.25053 2.17865 5.33545 2.19556C5.42036 2.21247 5.49834 2.25419 5.55953 2.31545L9.93453 6.69045C9.97521 6.73108 10.0075 6.77933 10.0295 6.83244C10.0515 6.88555 10.0628 6.94248 10.0628 6.99998C10.0628 7.05747 10.0515 7.1144 10.0295 7.16751C10.0075 7.22063 9.97521 7.26888 9.93453 7.30951Z" fill="#666666"/>
</svg>
