<svg width="16" height="17" viewBox="0 0 16 17" fill="none" xmlns="http://www.w3.org/2000/svg">
<path d="M14.25 1.5H12.375V0.875C12.375 0.70924 12.3092 0.550268 12.1919 0.433058C12.0747 0.315848 11.9158 0.25 11.75 0.25C11.5842 0.25 11.4253 0.315848 11.3081 0.433058C11.1908 0.550268 11.125 0.70924 11.125 0.875V1.5H4.875V0.875C4.875 0.70924 4.80915 0.550268 4.69194 0.433058C4.57473 0.315848 4.41576 0.25 4.25 0.25C4.08424 0.25 3.92527 0.315848 3.80806 0.433058C3.69085 0.550268 3.625 0.70924 3.625 0.875V1.5H1.75C1.41848 1.5 1.10054 1.6317 0.866116 1.86612C0.631696 2.10054 0.5 2.41848 0.5 2.75V15.25C0.5 15.5815 0.631696 15.8995 0.866116 16.1339C1.10054 16.3683 1.41848 16.5 1.75 16.5H14.25C14.5815 16.5 14.8995 16.3683 15.1339 16.1339C15.3683 15.8995 15.5 15.5815 15.5 15.25V2.75C15.5 2.41848 15.3683 2.10054 15.1339 1.86612C14.8995 1.6317 14.5815 1.5 14.25 1.5ZM11.2547 9.44219L7.50469 13.1922C7.44664 13.2503 7.37771 13.2964 7.30184 13.3279C7.22596 13.3593 7.14463 13.3755 7.0625 13.3755C6.98037 13.3755 6.89904 13.3593 6.82316 13.3279C6.74729 13.2964 6.67836 13.2503 6.62031 13.1922L4.74531 11.3172C4.62804 11.1999 4.56215 11.0409 4.56215 10.875C4.56215 10.7091 4.62804 10.5501 4.74531 10.4328C4.86259 10.3155 5.02165 10.2497 5.1875 10.2497C5.35335 10.2497 5.51241 10.3155 5.62969 10.4328L7.0625 11.8664L10.3703 8.55781C10.4284 8.49974 10.4973 8.45368 10.5732 8.42225C10.6491 8.39083 10.7304 8.37465 10.8125 8.37465C10.8946 8.37465 10.9759 8.39083 11.0518 8.42225C11.1277 8.45368 11.1966 8.49974 11.2547 8.55781C11.3128 8.61588 11.3588 8.68482 11.3902 8.76069C11.4217 8.83656 11.4378 8.91788 11.4378 9C11.4378 9.08212 11.4217 9.16344 11.3902 9.23931C11.3588 9.31518 11.3128 9.38412 11.2547 9.44219ZM1.75 5.25V2.75H3.625V3.375C3.625 3.54076 3.69085 3.69973 3.80806 3.81694C3.92527 3.93415 4.08424 4 4.25 4C4.41576 4 4.57473 3.93415 4.69194 3.81694C4.80915 3.69973 4.875 3.54076 4.875 3.375V2.75H11.125V3.375C11.125 3.54076 11.1908 3.69973 11.3081 3.81694C11.4253 3.93415 11.5842 4 11.75 4C11.9158 4 12.0747 3.93415 12.1919 3.81694C12.3092 3.69973 12.375 3.54076 12.375 3.375V2.75H14.25V5.25H1.75Z" fill="#666666"/>
</svg>
