<svg width="14" height="18" viewBox="0 0 14 18" fill="none" xmlns="http://www.w3.org/2000/svg">
<path d="M13.6922 5.43281L9.31719 1.05781C9.2591 0.999791 9.19015 0.953782 9.11428 0.922415C9.03841 0.891047 8.9571 0.874936 8.875 0.875H1.375C1.04348 0.875 0.725537 1.0067 0.491116 1.24112C0.256696 1.47554 0.125 1.79348 0.125 2.125V15.875C0.125 16.2065 0.256696 16.5245 0.491116 16.7589C0.725537 16.9933 1.04348 17.125 1.375 17.125H12.625C12.9565 17.125 13.2745 16.9933 13.5089 16.7589C13.7433 16.5245 13.875 16.2065 13.875 15.875V5.875C13.8751 5.7929 13.859 5.71159 13.8276 5.63572C13.7962 5.55985 13.7502 5.4909 13.6922 5.43281ZM8.875 5.875V2.4375L12.3125 5.875H8.875Z" fill="#666666"/>
</svg>
