<svg width="10" height="10" viewBox="0 0 10 10" fill="none" xmlns="http://www.w3.org/2000/svg">
<path d="M4.375 2.34375C4.375 2.22014 4.41166 2.0993 4.48033 1.99652C4.54901 1.89374 4.64662 1.81363 4.76082 1.76633C4.87503 1.71902 5.00069 1.70664 5.12193 1.73076C5.24317 1.75488 5.35453 1.8144 5.44194 1.90181C5.52935 1.98922 5.58888 2.10058 5.61299 2.22182C5.63711 2.34306 5.62473 2.46872 5.57743 2.58293C5.53012 2.69713 5.45001 2.79474 5.34723 2.86342C5.24445 2.93209 5.12361 2.96875 5 2.96875C4.83424 2.96875 4.67527 2.9029 4.55806 2.78569C4.44085 2.66848 4.375 2.50951 4.375 2.34375ZM5 4.375C4.87639 4.375 4.75555 4.41166 4.65277 4.48033C4.54999 4.54901 4.46988 4.64662 4.42258 4.76082C4.37527 4.87503 4.36289 5.00069 4.38701 5.12193C4.41113 5.24317 4.47065 5.35453 4.55806 5.44194C4.64547 5.52935 4.75683 5.58888 4.87807 5.61299C4.99931 5.63711 5.12497 5.62473 5.23918 5.57742C5.35338 5.53012 5.45099 5.45001 5.51967 5.34723C5.58834 5.24445 5.625 5.12361 5.625 5C5.625 4.83424 5.55915 4.67527 5.44194 4.55806C5.32473 4.44085 5.16576 4.375 5 4.375ZM5 7.03125C4.87639 7.03125 4.75555 7.06791 4.65277 7.13658C4.54999 7.20526 4.46988 7.30287 4.42258 7.41707C4.37527 7.53128 4.36289 7.65694 4.38701 7.77818C4.41113 7.89942 4.47065 8.01078 4.55806 8.09819C4.64547 8.1856 4.75683 8.24513 4.87807 8.26924C4.99931 8.29336 5.12497 8.28098 5.23918 8.23367C5.35338 8.18637 5.45099 8.10626 5.51967 8.00348C5.58834 7.9007 5.625 7.77986 5.625 7.65625C5.625 7.49049 5.55915 7.33152 5.44194 7.21431C5.32473 7.0971 5.16576 7.03125 5 7.03125Z" fill="black"/>
</svg>
