<svg width="16" height="17" viewBox="0 0 16 17" fill="none" xmlns="http://www.w3.org/2000/svg">
<g id="dots-vertical">
<g id="Icon">
<path d="M7.99967 9.16699C8.36786 9.16699 8.66634 8.86852 8.66634 8.50033C8.66634 8.13214 8.36786 7.83366 7.99967 7.83366C7.63148 7.83366 7.33301 8.13214 7.33301 8.50033C7.33301 8.86852 7.63148 9.16699 7.99967 9.16699Z" fill="#5E5E5E"/>
<path d="M7.99967 4.50033C8.36786 4.50033 8.66634 4.20185 8.66634 3.83366C8.66634 3.46547 8.36786 3.16699 7.99967 3.16699C7.63148 3.16699 7.33301 3.46547 7.33301 3.83366C7.33301 4.20185 7.63148 4.50033 7.99967 4.50033Z" fill="#5E5E5E"/>
<path d="M7.99967 13.8337C8.36786 13.8337 8.66634 13.5352 8.66634 13.167C8.66634 12.7988 8.36786 12.5003 7.99967 12.5003C7.63148 12.5003 7.33301 12.7988 7.33301 13.167C7.33301 13.5352 7.63148 13.8337 7.99967 13.8337Z" fill="#5E5E5E"/>
<path d="M7.99967 9.16699C8.36786 9.16699 8.66634 8.86852 8.66634 8.50033C8.66634 8.13214 8.36786 7.83366 7.99967 7.83366C7.63148 7.83366 7.33301 8.13214 7.33301 8.50033C7.33301 8.86852 7.63148 9.16699 7.99967 9.16699Z" stroke="#5E5E5E" stroke-linecap="round" stroke-linejoin="round"/>
<path d="M7.99967 4.50033C8.36786 4.50033 8.66634 4.20185 8.66634 3.83366C8.66634 3.46547 8.36786 3.16699 7.99967 3.16699C7.63148 3.16699 7.33301 3.46547 7.33301 3.83366C7.33301 4.20185 7.63148 4.50033 7.99967 4.50033Z" stroke="#5E5E5E" stroke-linecap="round" stroke-linejoin="round"/>
<path d="M7.99967 13.8337C8.36786 13.8337 8.66634 13.5352 8.66634 13.167C8.66634 12.7988 8.36786 12.5003 7.99967 12.5003C7.63148 12.5003 7.33301 12.7988 7.33301 13.167C7.33301 13.5352 7.63148 13.8337 7.99967 13.8337Z" stroke="#5E5E5E" stroke-linecap="round" stroke-linejoin="round"/>
</g>
</g>
</svg>
