<svg width="26" height="26" viewBox="0 0 26 26" fill="none" xmlns="http://www.w3.org/2000/svg">
<rect x="1.25" y="1.25" width="23.5" height="23.5" rx="11.75" fill="#283093"/>
<path d="M16.9898 10.7554L15.2445 9.0097C15.172 8.93712 15.0858 8.87954 14.991 8.84026C14.8962 8.80098 14.7946 8.78076 14.692 8.78076C14.5894 8.78076 14.4878 8.80098 14.393 8.84026C14.2981 8.87954 14.212 8.93712 14.1395 9.0097L9.32266 13.8269C9.24985 13.8992 9.19212 13.9853 9.15283 14.0801C9.11353 14.1749 9.09345 14.2766 9.09375 14.3792V16.1249C9.09375 16.3321 9.17606 16.5308 9.32258 16.6774C9.46909 16.8239 9.6678 16.9062 9.875 16.9062H11.6207C11.7233 16.9065 11.825 16.8864 11.9198 16.8471C12.0146 16.8078 12.1007 16.7501 12.173 16.6773L16.9898 11.8601C17.1363 11.7136 17.2186 11.5149 17.2186 11.3077C17.2186 11.1006 17.1363 10.9019 16.9898 10.7554ZM11.5547 15.9687H10.0313V14.4452L13.3125 11.164L14.8359 12.6874L11.5547 15.9687ZM15.5 12.0234L13.9766 10.4999L14.693 9.78352L16.2164 11.307L15.5 12.0234Z" fill="white"/>
<rect x="1.25" y="1.25" width="23.5" height="23.5" rx="11.75" stroke="#FAFAFA" stroke-width="1.5"/>
</svg>
