<svg width="20" height="20" viewBox="0 0 20 20" fill="none" xmlns="http://www.w3.org/2000/svg">
<g clip-path="url(#clip0_4590_6480)">
<path d="M10 20C4.48594 20 0 15.5141 0 10C0 4.48594 4.48594 0 10 0C15.5141 0 20 4.48594 20 10C20 15.5141 15.5141 20 10 20ZM10 0.838281C4.94805 0.838281 0.838281 4.94805 0.838281 10C0.838281 15.052 4.94805 19.1617 10 19.1617C15.052 19.1617 19.1617 15.052 19.1617 10C19.1617 4.94805 15.0516 0.838281 10 0.838281Z" fill="#666666"/>
<path d="M8.06798 6.64531C8.06798 6.26312 8.18132 5.8895 8.39366 5.57172C8.60599 5.25393 8.9078 5.00625 9.2609 4.85999C9.614 4.71373 10.0026 4.67546 10.3774 4.75002C10.7523 4.82459 11.0966 5.00863 11.3668 5.27888C11.6371 5.54914 11.8211 5.89346 11.8957 6.26832C11.9703 6.64317 11.932 7.03172 11.7857 7.38482C11.6395 7.73792 11.3918 8.03973 11.074 8.25206C10.7562 8.4644 10.3826 8.57774 10.0004 8.57774C9.48793 8.57763 8.99647 8.374 8.63409 8.01163C8.27172 7.64925 8.06809 7.15779 8.06798 6.64531ZM11.0344 8.88789L10.0004 10.2664L8.96681 8.88789C8.35857 9.10988 7.83361 9.51407 7.46353 10.0454C7.09345 10.5767 6.89625 11.2092 6.89884 11.8566V15.2879H13.1024V11.8566C13.1048 11.2092 12.9076 10.5768 12.5375 10.0456C12.1674 9.51444 11.6425 9.11029 11.0344 8.88828V8.88789ZM10.1875 9.07188C10.2713 8.97445 10.3145 8.84863 10.3082 8.72031C10.2098 8.71094 10.1102 8.70586 10.0094 8.70586C9.90861 8.70586 9.81408 8.71094 9.71798 8.71992C9.71798 8.71992 9.70275 8.92852 9.83205 9.07656C9.83205 9.075 10.0695 9.07969 10.1875 9.07227V9.07188ZM10.0059 10.0598L10.3426 9.66914L10.1828 9.13047H9.82853L9.65587 9.66914L10.0059 10.0598ZM13.5606 9.43477C13.6236 9.36121 13.656 9.26628 13.6512 9.16953C13.5774 9.1625 13.5028 9.15899 13.427 9.15899C13.3512 9.15899 13.2801 9.1625 13.2082 9.16953C13.204 9.266 13.2345 9.36079 13.2942 9.43672C13.2942 9.43672 13.4735 9.4418 13.5621 9.43633L13.5606 9.43477ZM13.4242 10.177L13.6774 9.88281L13.5574 9.47852H13.2914L13.1645 9.8832L13.4242 10.177ZM13.4199 9.06524C13.7067 9.06524 13.9871 8.98019 14.2255 8.82087C14.464 8.66154 14.6498 8.43508 14.7596 8.17013C14.8693 7.90517 14.898 7.61363 14.8421 7.33235C14.7861 7.05108 14.648 6.79272 14.4452 6.58993C14.2425 6.38714 13.9841 6.24905 13.7028 6.1931C13.4215 6.13715 13.13 6.16586 12.865 6.27561C12.6001 6.38536 12.3736 6.57121 12.2143 6.80966C12.055 7.04811 11.9699 7.32845 11.9699 7.61524C11.9699 7.80578 12.0075 7.99446 12.0805 8.17049C12.1534 8.34651 12.2604 8.50643 12.3952 8.64109C12.53 8.77576 12.69 8.88253 12.8661 8.95531C13.0422 9.02809 13.231 9.06544 13.4215 9.06524H13.4199ZM7.35275 9.29961L6.57892 10.3324L5.80314 9.29727C5.34702 9.46387 4.95335 9.76704 4.67578 10.1655C4.3982 10.5639 4.25021 11.0382 4.25197 11.5238V15.2863H6.61017V11.8566C6.60929 11.4033 6.69782 10.9543 6.87068 10.5352C7.04355 10.1162 7.29736 9.73531 7.61759 9.41445C7.53243 9.37007 7.44464 9.33093 7.3547 9.29727L7.35275 9.29961ZM6.57736 9.06524C6.86414 9.06524 7.14448 8.98019 7.38294 8.82087C7.62139 8.66154 7.80724 8.43508 7.91698 8.17013C8.02673 7.90517 8.05545 7.61363 7.9995 7.33235C7.94355 7.05108 7.80545 6.79272 7.60266 6.58993C7.39988 6.38714 7.14151 6.24905 6.86024 6.1931C6.57897 6.13715 6.28742 6.16586 6.02247 6.27561C5.75752 6.38536 5.53106 6.57121 5.37173 6.80966C5.2124 7.04811 5.12736 7.32845 5.12736 7.61524C5.12741 7.8058 5.16502 7.99449 5.23803 8.17052C5.31104 8.34654 5.41802 8.50646 5.55286 8.64112C5.6877 8.77578 5.84776 8.88254 6.02388 8.95532C6.20001 9.02809 6.38875 9.06544 6.57931 9.06524H6.57736ZM6.71759 9.43594C6.78063 9.36238 6.81306 9.26745 6.80822 9.1707C6.73426 9.16367 6.65965 9.16016 6.58439 9.16016C6.50913 9.16016 6.43621 9.16354 6.36564 9.17031C6.36134 9.26697 6.39167 9.362 6.45119 9.43828C6.45119 9.43828 6.63088 9.4418 6.71916 9.43633L6.71759 9.43594ZM14.1977 9.29727L13.4215 10.3324L12.6457 9.29727C12.5556 9.33089 12.4677 9.37003 12.3824 9.41445C12.7029 9.73542 12.9568 10.1164 13.1298 10.5357C13.3027 10.955 13.3912 11.4043 13.3902 11.8578V13.4086C13.4004 13.4086 13.3801 15.2891 13.3902 15.2891H15.7442L15.7485 11.5266C15.7507 11.0406 15.6031 10.5657 15.3255 10.1667C15.048 9.76777 14.6541 9.46414 14.1977 9.29727ZM6.58322 10.1773L6.83634 9.8832L6.71642 9.47891H6.45041L6.32111 9.8832L6.58322 10.1773Z" fill="#666666"/>
</g>
<defs>
<clipPath id="clip0_4590_6480">
<rect width="20" height="20" fill="white"/>
</clipPath>
</defs>
</svg>
