<svg width="16" height="16" viewBox="0 0 16 16" fill="none" xmlns="http://www.w3.org/2000/svg">
<path d="M14.8704 6.70057C14.8565 6.63016 14.8275 6.56358 14.7856 6.50534C14.7436 6.4471 14.6896 6.39858 14.6273 6.36307L12.7629 5.30057L12.7554 3.19932C12.7552 3.12696 12.7392 3.0555 12.7087 2.98989C12.6782 2.92429 12.6337 2.86609 12.5785 2.81932C11.9022 2.24726 11.1234 1.80886 10.2835 1.52745C10.2174 1.50506 10.1473 1.49677 10.0777 1.50313C10.0082 1.50948 9.94076 1.53032 9.87977 1.56432L7.99914 2.61557L6.11664 1.56245C6.05561 1.52826 5.98809 1.50725 5.91843 1.50079C5.84878 1.49433 5.77854 1.50256 5.71227 1.52495C4.87287 1.80817 4.09492 2.24826 3.41977 2.82182C3.36462 2.86852 3.32025 2.92662 3.28972 2.99211C3.25919 3.0576 3.24321 3.12894 3.24289 3.2012L3.23352 5.30432L1.36914 6.36682C1.30677 6.40233 1.25277 6.45085 1.21082 6.50909C1.16887 6.56733 1.13994 6.63391 1.12602 6.70432C0.95539 7.56175 0.95539 8.4444 1.12602 9.30182C1.13994 9.37223 1.16887 9.43882 1.21082 9.49705C1.25277 9.55529 1.30677 9.60381 1.36914 9.63932L3.23352 10.7018L3.24102 12.8037C3.24124 12.8761 3.25718 12.9475 3.28771 13.0131C3.31825 13.0787 3.36267 13.1369 3.41789 13.1837C4.09419 13.7558 4.87299 14.1942 5.71289 14.4756C5.77903 14.498 5.84913 14.5062 5.91867 14.4999C5.98821 14.4935 6.05565 14.4727 6.11664 14.4387L7.99914 13.3843L9.88164 14.4374C9.95614 14.479 10.0401 14.5005 10.1254 14.4999C10.18 14.4999 10.2342 14.4911 10.286 14.4737C11.1252 14.1906 11.9031 13.751 12.5785 13.1781C12.6337 13.1314 12.678 13.0733 12.7086 13.0078C12.7391 12.9423 12.7551 12.871 12.7554 12.7987L12.7648 10.6956L14.6291 9.63307C14.6915 9.59756 14.7455 9.54904 14.7875 9.4908C14.8294 9.43257 14.8583 9.36598 14.8723 9.29557C15.0419 8.43883 15.0413 7.55707 14.8704 6.70057ZM7.99914 10.4999C7.50469 10.4999 7.02134 10.3533 6.61022 10.0786C6.19909 9.80392 5.87866 9.41347 5.68944 8.95666C5.50022 8.49984 5.45072 7.99717 5.54718 7.51222C5.64364 7.02727 5.88174 6.58181 6.23138 6.23218C6.58101 5.88255 7.02646 5.64445 7.51142 5.54798C7.99637 5.45152 8.49904 5.50103 8.95585 5.69025C9.41267 5.87947 9.80311 6.1999 10.0778 6.61102C10.3525 7.02214 10.4991 7.50549 10.4991 7.99995C10.4991 8.66299 10.2358 9.29887 9.76691 9.76771C9.29807 10.2366 8.66218 10.4999 7.99914 10.4999Z" fill="#FAFAFA"/>
</svg>
