<svg width="16" height="16" viewBox="0 0 16 16" fill="none" xmlns="http://www.w3.org/2000/svg">
<path d="M14.7625 13.6436C14.6322 13.7995 14.4572 13.9116 14.2611 13.9648C14.0651 14.0181 13.8574 14.0098 13.6662 13.9411L8.66933 12.2311C8.61989 12.2143 8.57697 12.1824 8.54659 12.1399C8.51621 12.0974 8.4999 12.0465 8.49995 11.9943V7.49988C8.5001 7.43134 8.48616 7.3635 8.45898 7.30057C8.43181 7.23764 8.39199 7.18097 8.34199 7.13408C8.292 7.08719 8.23289 7.05108 8.16835 7.028C8.10382 7.00491 8.03522 6.99534 7.96683 6.99988C7.83825 7.01122 7.71871 7.07071 7.63214 7.16644C7.54556 7.26217 7.49835 7.38707 7.49995 7.51613V11.9893C7.50004 12.0414 7.48383 12.0923 7.45357 12.1348C7.42331 12.1772 7.38052 12.2092 7.3312 12.2261L2.3312 13.9411C2.13953 14.0083 1.93196 14.0155 1.7361 13.9618C1.54023 13.9081 1.36536 13.7961 1.23474 13.6405C1.10412 13.485 1.02395 13.2934 1.0049 13.0912C0.985846 12.889 1.02881 12.6858 1.12808 12.5086L7.12495 2.00801C7.21194 1.85336 7.33852 1.72465 7.49168 1.63507C7.64484 1.5455 7.81908 1.49829 7.99651 1.49829C8.17395 1.49829 8.34818 1.5455 8.50135 1.63507C8.65451 1.72465 8.78108 1.85336 8.86808 2.00801L14.8687 12.5055C14.9704 12.6831 15.0148 12.8877 14.9957 13.0914C14.9767 13.2951 14.8952 13.488 14.7625 13.6436Z" fill="#FAFAFA"/>
</svg>
