<svg width="14" height="14" viewBox="0 0 14 14" fill="none" xmlns="http://www.w3.org/2000/svg">
<path d="M12.6553 2.4249C12.6553 2.4249 12.6553 2.43037 12.6553 2.4331L9.47251 12.9298C9.42434 13.1003 9.32517 13.252 9.18832 13.3645C9.05146 13.477 8.88347 13.545 8.70689 13.5593C8.68173 13.5615 8.65658 13.5626 8.63142 13.5626C8.46593 13.5631 8.30375 13.5162 8.16402 13.4276C8.02429 13.3389 7.91284 13.2121 7.84282 13.0622L5.88993 8.93927C5.87065 8.89849 5.86446 8.85273 5.87219 8.80829C5.87992 8.76384 5.90121 8.72287 5.93314 8.69099L9.06454 5.55904C9.14313 5.47633 9.18629 5.36618 9.18483 5.2521C9.18337 5.13802 9.1374 5.02902 9.05672 4.94834C8.97605 4.86767 8.86705 4.8217 8.75297 4.82024C8.63888 4.81878 8.52874 4.86194 8.44603 4.94052L5.3097 8.07193C5.27782 8.10386 5.23685 8.12514 5.19241 8.13288C5.14796 8.14061 5.10221 8.13441 5.06142 8.11513L0.959856 6.17209C0.798771 6.09829 0.663208 5.97834 0.570335 5.82745C0.477461 5.67655 0.431453 5.50149 0.438137 5.32443C0.447045 5.14245 0.512928 4.96787 0.626471 4.82538C0.740014 4.68288 0.895474 4.57968 1.07087 4.53037L11.5676 1.34756H11.5758C11.7252 1.30557 11.8832 1.3041 12.0334 1.34329C12.1836 1.38249 12.3207 1.46094 12.4306 1.5706C12.5404 1.68025 12.6192 1.81717 12.6587 1.9673C12.6982 2.11743 12.697 2.27536 12.6553 2.4249Z" fill="#414EF1"/>
</svg>
