<svg width="24" height="25" viewBox="0 0 24 25" fill="none" xmlns="http://www.w3.org/2000/svg">
<path d="M20.25 4.25H3.75C3.35218 4.25 2.97064 4.40804 2.68934 4.68934C2.40804 4.97064 2.25 5.35218 2.25 5.75V20C2.25007 20.1278 2.28281 20.2535 2.34511 20.3651C2.40741 20.4768 2.49721 20.5706 2.60597 20.6378C2.71474 20.7049 2.83887 20.7432 2.96657 20.7489C3.09427 20.7546 3.22131 20.7275 3.33563 20.6703L6 19.3381L8.66437 20.6703C8.76857 20.7225 8.88348 20.7496 9 20.7496C9.11652 20.7496 9.23143 20.7225 9.33563 20.6703L12 19.3381L14.6644 20.6703C14.7686 20.7225 14.8835 20.7496 15 20.7496C15.1165 20.7496 15.2314 20.7225 15.3356 20.6703L18 19.3381L20.6644 20.6703C20.7787 20.7275 20.9057 20.7546 21.0334 20.7489C21.1611 20.7432 21.2853 20.7049 21.394 20.6378C21.5028 20.5706 21.5926 20.4768 21.6549 20.3651C21.7172 20.2535 21.7499 20.1278 21.75 20V5.75C21.75 5.35218 21.592 4.97064 21.3107 4.68934C21.0294 4.40804 20.6478 4.25 20.25 4.25ZM16.5 14H7.5C7.30109 14 7.11032 13.921 6.96967 13.7803C6.82902 13.6397 6.75 13.4489 6.75 13.25C6.75 13.0511 6.82902 12.8603 6.96967 12.7197C7.11032 12.579 7.30109 12.5 7.5 12.5H16.5C16.6989 12.5 16.8897 12.579 17.0303 12.7197C17.171 12.8603 17.25 13.0511 17.25 13.25C17.25 13.4489 17.171 13.6397 17.0303 13.7803C16.8897 13.921 16.6989 14 16.5 14ZM16.5 11H7.5C7.30109 11 7.11032 10.921 6.96967 10.7803C6.82902 10.6397 6.75 10.4489 6.75 10.25C6.75 10.0511 6.82902 9.86032 6.96967 9.71967C7.11032 9.57902 7.30109 9.5 7.5 9.5H16.5C16.6989 9.5 16.8897 9.57902 17.0303 9.71967C17.171 9.86032 17.25 10.0511 17.25 10.25C17.25 10.4489 17.171 10.6397 17.0303 10.7803C16.8897 10.921 16.6989 11 16.5 11Z" fill="#1C1C1C"/>
</svg>
