<svg width="17" height="16" viewBox="0 0 17 16" fill="none" xmlns="http://www.w3.org/2000/svg">
<path d="M1.75059 7.99997C1.75191 6.7406 2.25279 5.53319 3.1433 4.64268C4.03381 3.75217 5.24122 3.2513 6.50059 3.24997H12.6881L12.4681 3.0306C12.3983 2.96083 12.343 2.87801 12.3052 2.78686C12.2675 2.69571 12.248 2.59801 12.248 2.49935C12.248 2.40069 12.2675 2.30299 12.3052 2.21184C12.343 2.12069 12.3983 2.03786 12.4681 1.9681C12.5379 1.89833 12.6207 1.84299 12.7118 1.80524C12.803 1.76748 12.9007 1.74805 12.9993 1.74805C13.098 1.74805 13.1957 1.76748 13.2869 1.80524C13.378 1.84299 13.4608 1.89833 13.5306 1.9681L15.0306 3.4681C15.1005 3.53778 15.156 3.62057 15.1938 3.71173C15.2317 3.8029 15.2512 3.90064 15.2512 3.99935C15.2512 4.09806 15.2317 4.1958 15.1938 4.28696C15.156 4.37813 15.1005 4.46092 15.0306 4.5306L13.5306 6.0306C13.3897 6.17149 13.1986 6.25065 12.9993 6.25065C12.8001 6.25065 12.609 6.17149 12.4681 6.0306C12.3272 5.8897 12.248 5.69861 12.248 5.49935C12.248 5.30009 12.3272 5.10899 12.4681 4.9681L12.6881 4.74997H6.50059C5.63894 4.75097 4.81287 5.09369 4.20359 5.70297C3.59431 6.31225 3.25158 7.13832 3.25059 7.99997C3.25059 8.19888 3.17157 8.38965 3.03092 8.5303C2.89027 8.67095 2.6995 8.74997 2.50059 8.74997C2.30168 8.74997 2.11091 8.67095 1.97026 8.5303C1.82961 8.38965 1.75059 8.19888 1.75059 7.99997ZM14.5006 7.24997C14.3017 7.24997 14.1109 7.32899 13.9703 7.46964C13.8296 7.61029 13.7506 7.80106 13.7506 7.99997C13.7496 8.86162 13.4069 9.6877 12.7976 10.297C12.1883 10.9063 11.3622 11.249 10.5006 11.25H4.31309L4.53309 11.0306C4.60286 10.9608 4.6582 10.878 4.69595 10.7869C4.73371 10.6957 4.75314 10.598 4.75314 10.4993C4.75314 10.4007 4.73371 10.303 4.69595 10.2118C4.6582 10.1207 4.60286 10.0379 4.53309 9.9681C4.46333 9.89833 4.3805 9.84299 4.28935 9.80524C4.1982 9.76748 4.1005 9.74805 4.00184 9.74805C3.90318 9.74805 3.80548 9.76748 3.71433 9.80524C3.62318 9.84299 3.54036 9.89833 3.47059 9.9681L1.97059 11.4681C1.90067 11.5378 1.84519 11.6206 1.80734 11.7117C1.76949 11.8029 1.75 11.9006 1.75 11.9993C1.75 12.0981 1.76949 12.1958 1.80734 12.287C1.84519 12.3781 1.90067 12.4609 1.97059 12.5306L3.47059 14.0306C3.54036 14.1004 3.62318 14.1557 3.71433 14.1935C3.80548 14.2312 3.90318 14.2506 4.00184 14.2506C4.1005 14.2506 4.1982 14.2312 4.28935 14.1935C4.3805 14.1557 4.46333 14.1004 4.53309 14.0306C4.60286 13.9608 4.6582 13.878 4.69595 13.7869C4.73371 13.6957 4.75314 13.598 4.75314 13.4993C4.75314 13.4007 4.73371 13.303 4.69595 13.2118C4.6582 13.1207 4.60286 13.0379 4.53309 12.9681L4.31309 12.75H10.5006C11.76 12.7486 12.9674 12.2478 13.8579 11.3573C14.7484 10.4668 15.2493 9.25935 15.2506 7.99997C15.2506 7.80106 15.1716 7.61029 15.0309 7.46964C14.8903 7.32899 14.6995 7.24997 14.5006 7.24997Z" fill="#283093"/>
</svg>
