<svg width="20" height="20" viewBox="0 0 20 20" fill="none" xmlns="http://www.w3.org/2000/svg">
<path d="M2 4C2 3.46957 2.21071 2.96086 2.58579 2.58579C2.96086 2.21071 3.46957 2 4 2H14C14.5304 2 15.0391 2.21071 15.4142 2.58579C15.7893 2.96086 16 3.46957 16 4V14C16 14.5304 15.7893 15.0391 15.4142 15.4142C15.0391 15.7893 14.5304 16 14 16H4C3.46957 16 2.96086 15.7893 2.58579 15.4142C2.21071 15.0391 2 14.5304 2 14V4ZM4 3C3.73478 3 3.48043 3.10536 3.29289 3.29289C3.10536 3.48043 3 3.73478 3 4V14C3 14.2652 3.10536 14.5196 3.29289 14.7071C3.48043 14.8946 3.73478 15 4 15H14C14.2652 15 14.5196 14.8946 14.7071 14.7071C14.8946 14.5196 15 14.2652 15 14V4C15 3.73478 14.8946 3.48043 14.7071 3.29289C14.5196 3.10536 14.2652 3 14 3H4ZM6 18C5.64894 18 5.30406 17.9076 5.00003 17.732C4.696 17.5565 4.44353 17.304 4.268 17H14C14.7956 17 15.5587 16.6839 16.1213 16.1213C16.6839 15.5587 17 14.7956 17 14V4.268C17.304 4.44353 17.5565 4.696 17.732 5.00003C17.9076 5.30406 18 5.64894 18 6V14C18 15.0609 17.5786 16.0783 16.8284 16.8284C16.0783 17.5786 15.0609 18 14 18H6ZM12.376 7.33C12.4193 7.28062 12.4525 7.22319 12.4737 7.16099C12.4948 7.09879 12.5035 7.03303 12.4992 6.96747C12.4949 6.90192 12.4778 6.83784 12.4488 6.77891C12.4197 6.71997 12.3794 6.66734 12.33 6.624C12.2806 6.58066 12.2232 6.54748 12.161 6.52634C12.0988 6.50519 12.033 6.49651 11.9675 6.50078C11.9019 6.50505 11.8378 6.5222 11.7789 6.55123C11.72 6.58027 11.6673 6.62062 11.624 6.67L8.476 10.268L6.854 8.646C6.80751 8.59951 6.75232 8.56264 6.69158 8.53748C6.63084 8.51232 6.56574 8.49937 6.5 8.49937C6.43426 8.49937 6.36916 8.51232 6.30842 8.53748C6.24768 8.56264 6.19249 8.59951 6.146 8.646C6.09951 8.69249 6.06264 8.74768 6.03748 8.80842C6.01232 8.86916 5.99937 8.93426 5.99937 9C5.99937 9.06574 6.01232 9.13084 6.03748 9.19158C6.06264 9.25232 6.09951 9.30751 6.146 9.354L8.146 11.354C8.19446 11.4024 8.25234 11.4403 8.31606 11.4654C8.37978 11.4905 8.44798 11.5023 8.51643 11.4999C8.58487 11.4976 8.6521 11.4812 8.71396 11.4518C8.77581 11.4224 8.83097 11.3806 8.876 11.329L12.376 7.33Z" fill="white"/>
</svg>
