<svg width="10" height="10" viewBox="0 0 10 10" fill="none" xmlns="http://www.w3.org/2000/svg">
<path d="M5.46875 1.25V2.5C5.46875 2.62432 5.41936 2.74355 5.33146 2.83146C5.24355 2.91936 5.12432 2.96875 5 2.96875C4.87568 2.96875 4.75645 2.91936 4.66854 2.83146C4.58064 2.74355 4.53125 2.62432 4.53125 2.5V1.25C4.53125 1.12568 4.58064 1.00645 4.66854 0.918544C4.75645 0.830636 4.87568 0.78125 5 0.78125C5.12432 0.78125 5.24355 0.830636 5.33146 0.918544C5.41936 1.00645 5.46875 1.12568 5.46875 1.25ZM8.75 4.53125H7.5C7.37568 4.53125 7.25645 4.58064 7.16854 4.66854C7.08064 4.75645 7.03125 4.87568 7.03125 5C7.03125 5.12432 7.08064 5.24355 7.16854 5.33146C7.25645 5.41936 7.37568 5.46875 7.5 5.46875H8.75C8.87432 5.46875 8.99355 5.41936 9.08146 5.33146C9.16936 5.24355 9.21875 5.12432 9.21875 5C9.21875 4.87568 9.16936 4.75645 9.08146 4.66854C8.99355 4.58064 8.87432 4.53125 8.75 4.53125ZM7.09922 6.43633C7.05562 6.39273 7.00385 6.35814 6.94688 6.33454C6.88991 6.31094 6.82885 6.2988 6.76719 6.2988C6.70552 6.2988 6.64446 6.31094 6.58749 6.33454C6.53052 6.35814 6.47876 6.39273 6.43516 6.43633C6.39155 6.47993 6.35697 6.5317 6.33337 6.58867C6.30977 6.64564 6.29762 6.7067 6.29762 6.76836C6.29762 6.83002 6.30977 6.89108 6.33337 6.94805C6.35697 7.00502 6.39155 7.05679 6.43516 7.10039L7.31914 7.98438C7.4072 8.07243 7.52664 8.12191 7.65117 8.12191C7.77571 8.12191 7.89514 8.07243 7.9832 7.98438C8.07126 7.89631 8.12073 7.77688 8.12073 7.65234C8.12073 7.52781 8.07126 7.40837 7.9832 7.32031L7.09922 6.43633ZM5 7.03125C4.87568 7.03125 4.75645 7.08064 4.66854 7.16854C4.58064 7.25645 4.53125 7.37568 4.53125 7.5V8.75C4.53125 8.87432 4.58064 8.99355 4.66854 9.08146C4.75645 9.16936 4.87568 9.21875 5 9.21875C5.12432 9.21875 5.24355 9.16936 5.33146 9.08146C5.41936 8.99355 5.46875 8.87432 5.46875 8.75V7.5C5.46875 7.37568 5.41936 7.25645 5.33146 7.16854C5.24355 7.08064 5.12432 7.03125 5 7.03125ZM2.90078 6.43633L2.0168 7.32031C1.92874 7.40837 1.87926 7.52781 1.87927 7.65234C1.87927 7.77688 1.92874 7.89631 2.0168 7.98438C2.10486 8.07243 2.22429 8.12191 2.34883 8.12191C2.47336 8.12191 2.5928 8.07243 2.68086 7.98438L3.56484 7.10039C3.6529 7.01233 3.70238 6.8929 3.70238 6.76836C3.70238 6.64382 3.6529 6.52439 3.56484 6.43633C3.47678 6.34827 3.35735 6.2988 3.23281 6.2988C3.10828 6.2988 2.98884 6.34827 2.90078 6.43633ZM2.96875 5C2.96875 4.87568 2.91936 4.75645 2.83146 4.66854C2.74355 4.58064 2.62432 4.53125 2.5 4.53125H1.25C1.12568 4.53125 1.00645 4.58064 0.918544 4.66854C0.830636 4.75645 0.78125 4.87568 0.78125 5C0.78125 5.12432 0.830636 5.24355 0.918544 5.33146C1.00645 5.41936 1.12568 5.46875 1.25 5.46875H2.5C2.62432 5.46875 2.74355 5.41936 2.83146 5.33146C2.91936 5.24355 2.96875 5.12432 2.96875 5ZM2.67969 2.0168C2.59163 1.92874 2.47219 1.87927 2.34766 1.87927C2.22312 1.87927 2.10369 1.92874 2.01562 2.0168C1.92756 2.10486 1.87809 2.22429 1.87809 2.34883C1.87809 2.47336 1.92756 2.5928 2.01562 2.68086L2.90078 3.56367C2.98884 3.65173 3.10828 3.7012 3.23281 3.7012C3.35735 3.7012 3.47678 3.65173 3.56484 3.56367C3.6529 3.47561 3.70238 3.35618 3.70238 3.23164C3.70238 3.1071 3.6529 2.98767 3.56484 2.89961L2.67969 2.0168Z" fill="#945D2D"/>
</svg>
