<svg width="18" height="18" viewBox="0 0 18 18" fill="none" xmlns="http://www.w3.org/2000/svg">
<path d="M15.1875 3.375H2.8125C2.58872 3.375 2.37411 3.46389 2.21588 3.62213C2.05764 3.78036 1.96875 3.99497 1.96875 4.21875C1.96875 4.44253 2.05764 4.65714 2.21588 4.81537C2.37411 4.97361 2.58872 5.0625 2.8125 5.0625H3.09375V14.625C3.09375 14.998 3.24191 15.3556 3.50563 15.6194C3.76935 15.8831 4.12704 16.0312 4.5 16.0312H13.5C13.873 16.0312 14.2306 15.8831 14.4944 15.6194C14.7581 15.3556 14.9062 14.998 14.9062 14.625V5.0625H15.1875C15.4113 5.0625 15.6259 4.97361 15.7841 4.81537C15.9424 4.65714 16.0312 4.44253 16.0312 4.21875C16.0312 3.99497 15.9424 3.78036 15.7841 3.62213C15.6259 3.46389 15.4113 3.375 15.1875 3.375ZM13.2188 14.3438H4.78125V5.0625H13.2188V14.3438ZM5.34375 1.40625C5.34375 1.18247 5.43264 0.967862 5.59088 0.809629C5.74911 0.651395 5.96372 0.5625 6.1875 0.5625H11.8125C12.0363 0.5625 12.2509 0.651395 12.4091 0.809629C12.5674 0.967862 12.6562 1.18247 12.6562 1.40625C12.6562 1.63003 12.5674 1.84464 12.4091 2.00287C12.2509 2.16111 12.0363 2.25 11.8125 2.25H6.1875C5.96372 2.25 5.74911 2.16111 5.59088 2.00287C5.43264 1.84464 5.34375 1.63003 5.34375 1.40625Z" fill="#4A4A4A"/>
</svg>
