<svg width="17" height="16" viewBox="0 0 17 16" fill="none" xmlns="http://www.w3.org/2000/svg">
<path d="M14 3H3C2.80109 3 2.61032 3.07902 2.46967 3.21967C2.32902 3.36032 2.25 3.55109 2.25 3.75C2.25 3.94891 2.32902 4.13968 2.46967 4.28033C2.61032 4.42098 2.80109 4.5 3 4.5H3.25V13C3.25 13.3315 3.3817 13.6495 3.61612 13.8839C3.85054 14.1183 4.16848 14.25 4.5 14.25H12.5C12.8315 14.25 13.1495 14.1183 13.3839 13.8839C13.6183 13.6495 13.75 13.3315 13.75 13V4.5H14C14.1989 4.5 14.3897 4.42098 14.5303 4.28033C14.671 4.13968 14.75 3.94891 14.75 3.75C14.75 3.55109 14.671 3.36032 14.5303 3.21967C14.3897 3.07902 14.1989 3 14 3ZM12.25 12.75H4.75V4.5H12.25V12.75ZM5.25 1.25C5.25 1.05109 5.32902 0.860322 5.46967 0.71967C5.61032 0.579018 5.80109 0.5 6 0.5H11C11.1989 0.5 11.3897 0.579018 11.5303 0.71967C11.671 0.860322 11.75 1.05109 11.75 1.25C11.75 1.44891 11.671 1.63968 11.5303 1.78033C11.3897 1.92098 11.1989 2 11 2H6C5.80109 2 5.61032 1.92098 5.46967 1.78033C5.32902 1.63968 5.25 1.44891 5.25 1.25Z" fill="#8A2626"/>
</svg>
