<svg width="16" height="16" viewBox="0 0 16 16" fill="none" xmlns="http://www.w3.org/2000/svg">
<path d="M10.5 7.25H13.5C13.8315 7.25 14.1495 7.1183 14.3839 6.88388C14.6183 6.64946 14.75 6.33152 14.75 6V3C14.75 2.66848 14.6183 2.35054 14.3839 2.11612C14.1495 1.8817 13.8315 1.75 13.5 1.75H10.5C10.1685 1.75 9.85054 1.8817 9.61612 2.11612C9.3817 2.35054 9.25 2.66848 9.25 3V3.75H9C8.40326 3.75 7.83097 3.98705 7.40901 4.40901C6.98705 4.83097 6.75 5.40326 6.75 6V7.25H5.25V7C5.25 6.66848 5.1183 6.35054 4.88388 6.11612C4.64946 5.8817 4.33152 5.75 4 5.75H2C1.66848 5.75 1.35054 5.8817 1.11612 6.11612C0.881696 6.35054 0.75 6.66848 0.75 7V9C0.75 9.16415 0.782332 9.3267 0.845151 9.47835C0.907969 9.63001 1.00004 9.76781 1.11612 9.88388C1.23219 9.99996 1.36999 10.092 1.52165 10.1548C1.6733 10.2177 1.83585 10.25 2 10.25H4C4.16415 10.25 4.3267 10.2177 4.47835 10.1548C4.63001 10.092 4.76781 9.99996 4.88388 9.88388C4.99996 9.76781 5.09203 9.63001 5.15485 9.47835C5.21767 9.3267 5.25 9.16415 5.25 9V8.75H6.75V10C6.75 10.5967 6.98705 11.169 7.40901 11.591C7.83097 12.0129 8.40326 12.25 9 12.25H9.25V13C9.25 13.3315 9.3817 13.6495 9.61612 13.8839C9.85054 14.1183 10.1685 14.25 10.5 14.25H13.5C13.8315 14.25 14.1495 14.1183 14.3839 13.8839C14.6183 13.6495 14.75 13.3315 14.75 13V10C14.75 9.66848 14.6183 9.35054 14.3839 9.11612C14.1495 8.8817 13.8315 8.75 13.5 8.75H10.5C10.1685 8.75 9.85054 8.8817 9.61612 9.11612C9.3817 9.35054 9.25 9.66848 9.25 10V10.75H9C8.80109 10.75 8.61032 10.671 8.46967 10.5303C8.32902 10.3897 8.25 10.1989 8.25 10V6C8.25 5.80109 8.32902 5.61032 8.46967 5.46967C8.61032 5.32902 8.80109 5.25 9 5.25H9.25V6C9.25 6.33152 9.3817 6.64946 9.61612 6.88388C9.85054 7.1183 10.1685 7.25 10.5 7.25ZM3.75 8.75H2.25V7.25H3.75V8.75ZM10.75 10.25H13.25V12.75H10.75V10.25ZM10.75 3.25H13.25V5.75H10.75V3.25Z" fill="#FAFAFA"/>
</svg>
