<svg width="24" height="25" viewBox="0 0 24 25" fill="none" xmlns="http://www.w3.org/2000/svg">
<g id="UsersThree">
<path id="Vector" d="M6.01126 14.3561C6.0138 14.4069 6.00599 14.4577 5.98828 14.5054C5.97058 14.5531 5.94336 14.5967 5.90828 14.6335C5.8732 14.6704 5.831 14.6997 5.78423 14.7197C5.73747 14.7397 5.68712 14.75 5.63626 14.7499H1.50001C1.33073 14.7502 1.16634 14.6931 1.03358 14.5881C0.900815 14.4831 0.807483 14.3363 0.76876 14.1715C0.744649 14.0587 0.74576 13.9419 0.772015 13.8296C0.79827 13.7173 0.84902 13.6122 0.920635 13.5218C1.58233 12.6443 2.46028 11.9533 3.46876 11.5165C3.026 11.1128 2.68642 10.6089 2.47846 10.047C2.27049 9.48505 2.2002 8.88149 2.27346 8.28682C2.34672 7.69216 2.56141 7.1237 2.89955 6.62907C3.23768 6.13444 3.68941 5.72803 4.21691 5.44388C4.74441 5.15973 5.33232 5.00612 5.93139 4.99591C6.53047 4.98569 7.12327 5.11918 7.66015 5.38518C8.19703 5.65118 8.66235 6.04195 9.01715 6.52477C9.37195 7.00758 9.60589 7.56839 9.69938 8.16021C9.71146 8.2398 9.6972 8.32115 9.65879 8.39189C9.62037 8.46262 9.5599 8.51888 9.48657 8.55209C8.44631 9.033 7.56532 9.80144 6.94755 10.7667C6.32977 11.732 6.00099 12.8539 6.00001 13.9999C6.00001 14.1199 6.00001 14.238 6.01126 14.3561ZM23.0738 13.5208C22.4136 12.6443 21.5376 11.9538 20.5313 11.5165C20.974 11.1128 21.3136 10.6089 21.5216 10.047C21.7295 9.48505 21.7998 8.88149 21.7266 8.28682C21.6533 7.69216 21.4386 7.1237 21.1005 6.62907C20.7623 6.13444 20.3106 5.72803 19.7831 5.44388C19.2556 5.15973 18.6677 5.00612 18.0686 4.99591C17.4696 4.98569 16.8768 5.11918 16.3399 5.38518C15.803 5.65118 15.3377 6.04195 14.9829 6.52477C14.6281 7.00758 14.3941 7.56839 14.3006 8.16021C14.2886 8.2398 14.3028 8.32115 14.3412 8.39189C14.3796 8.46262 14.4401 8.51888 14.5134 8.55209C15.5537 9.033 16.4347 9.80144 17.0525 10.7667C17.6702 11.732 17.999 12.8539 18 13.9999C18 14.1199 18 14.238 17.9888 14.3561C17.9862 14.4069 17.994 14.4577 18.0117 14.5054C18.0294 14.5531 18.0567 14.5967 18.0917 14.6335C18.1268 14.6704 18.169 14.6997 18.2158 14.7197C18.2626 14.7397 18.3129 14.75 18.3638 14.7499H22.5C22.6693 14.7502 22.8337 14.6931 22.9664 14.5881C23.0992 14.4831 23.1925 14.3363 23.2313 14.1715C23.2555 14.0585 23.2544 13.9415 23.228 13.829C23.2015 13.7165 23.1505 13.6112 23.0784 13.5208H23.0738ZM14.73 17.569C15.4768 16.9971 16.0256 16.2055 16.2992 15.3056C16.5729 14.4057 16.5577 13.4427 16.2558 12.5518C15.9538 11.661 15.3804 10.8872 14.6159 10.3391C13.8515 9.79106 12.9345 9.49632 11.9939 9.49632C11.0533 9.49632 10.1364 9.79106 9.37191 10.3391C8.60747 10.8872 8.03399 11.661 7.73206 12.5518C7.43012 13.4427 7.41493 14.4057 7.6886 15.3056C7.96227 16.2055 8.51106 16.9971 9.25782 17.569C7.9327 18.1431 6.8262 19.1264 6.10032 20.3749C6.03449 20.4889 5.99983 20.6183 5.99984 20.7499C5.99985 20.8816 6.03452 21.011 6.10036 21.125C6.16621 21.239 6.26091 21.3337 6.37495 21.3995C6.48899 21.4653 6.61834 21.4999 6.75001 21.4999H17.25C17.3817 21.4999 17.511 21.4653 17.6251 21.3995C17.7391 21.3337 17.8338 21.239 17.8997 21.125C17.9655 21.011 18.0002 20.8816 18.0002 20.7499C18.0002 20.6183 17.9655 20.4889 17.8997 20.3749C17.1723 19.1256 16.0637 18.1422 14.7366 17.569H14.73Z" fill="#1C1C1C"/>
</g>
</svg>
